# xmcd
#
# Track frame offsets: 
#        150
#        14953
#        33428
#        55425
#        67945
#        84953
#        96972
#        110961
#        129202
#        151012
#        164131
#        179751
#        193328
#        206646
#        218565
#
# Disc length: 3081 seconds
#
# Revision: 0
# Processed by: cddbd v1.5.1PL2 Copyright (c) Steve Scherf et al.
# Submitted via: ExactAudioCopy v0.95b3
#
DISCID=de0c070f
DTITLE=Various Artist - House of Blues Essential Blues 2 Disc 2
DYEAR=1996
DGENRE=Blues
TTITLE0=Freddie King - Going Down
TTITLE1=Albert Collins - I Ain't Drunk
TTITLE2=Robert Cray - These Things
TTITLE3=Elmore James - Shake Your Moneymaker
TTITLE4=Magic Sam - All Your Love
TTITLE5=James Cotton - High Compression
TTITLE6=Sonny Boy Williamson - Help Me
TTITLE7=Willie Dixon - I Ain't Superstitious
TTITLE8=Koko Taylor - Wang Dang Doodle
TTITLE9=Otis Rush - I Can't Quit You Baby
TTITLE10=Muddy Waters - I Can't Be Satisfied
TTITLE11=Slim Harpo - I'm a King Bee
TTITLE12=Amos Milburn - Down the Road a Piece
TTITLE13=Earl Hooker - Blue Guitar
TTITLE14=B.B. King - Every Day I Have the Blues
EXTD=
EXTT0=
EXTT1=
EXTT2=
EXTT3=
EXTT4=
EXTT5=
EXTT6=
EXTT7=
EXTT8=
EXTT9=
EXTT10=
EXTT11=
EXTT12=
EXTT13=
EXTT14=
PLAYORDER=
